<!--?xml version="1.0" encoding="utf-8"?-->
<!-- Generator: Adobe Illustrator 18.1.1, SVG Export Plug-In . SVG Version: 6.00 Build 0)  -->

<svg version="1.1" id="_x31_0" xmlns="http://www.w3.org/2000/svg" xmlns:xlink="http://www.w3.org/1999/xlink" x="0px" y="0px" viewBox="0 0 512 512" style="width: 128px; height: 128px; opacity: 1;" xml:space="preserve">
<style type="text/css">
	.st0{fill:#374149;}
</style>
<g>
	<path class="st0" d="M263.472,74.062c-3.687-7.258-11.039-11.766-19.179-11.766H21.53c-8.137,0-15.484,4.508-19.176,11.758
		c-3.546,6.969-3.05,15.18,1.246,21.649l110.496,176.066V449v0.542l0,0v0.161h37.629V271.769L262.214,95.707
		C266.519,89.242,267.015,81.035,263.472,74.062z M113.96,200.761L50.679,99.925h63.418V154.5L113.96,200.761z M151.725,99.925
		h41.594l21.77,0.082l-34.25,54.574l-29.114,46.141V99.925z" style="fill: rgb(255, 255, 255);"></path>
	<rect x="260.359" y="247.3" class="st0" width="48.602" height="202.403" style="fill: rgb(255, 255, 255);"></rect>
	<rect x="361.878" y="196.589" class="st0" width="48.602" height="253.114" style="fill: rgb(255, 255, 255);"></rect>
	<rect x="463.398" y="145.875" class="st0" width="48.602" height="303.829" style="fill: rgb(255, 255, 255);"></rect>
</g>
</svg>
