<!--?xml version="1.0" encoding="utf-8"?-->
<!-- Generator: Adobe Illustrator 18.1.1, SVG Export Plug-In . SVG Version: 6.00 Build 0)  -->

<svg version="1.1" id="_x31_0" xmlns="http://www.w3.org/2000/svg" xmlns:xlink="http://www.w3.org/1999/xlink" x="0px" y="0px" viewBox="0 0 512 512" style="width: 128px; height: 128px; opacity: 1;" xml:space="preserve">
<style type="text/css">
	.st0{fill:#374149;}
</style>
<g>
	<path class="st0" d="M363.328,39.32h-43.074V14.367C320.254,6.465,313.793,0,305.891,0h-99.778
		c-7.902,0-14.367,6.465-14.367,14.367V39.32h-43.07c-32.781,0-59.453,26.668-59.453,59.45V452.55
		c0,32.782,26.672,59.45,59.453,59.45h214.653c32.781,0,59.449-26.668,59.449-59.45V98.77
		C422.777,65.988,396.109,39.32,363.328,39.32z M140.723,98.77c0-4.371,3.578-7.95,7.953-7.95h214.653
		c4.371,0,7.949,3.578,7.949,7.95V452.55c0,4.371-3.578,7.95-7.949,7.95H148.676c-4.374,0-7.953-3.578-7.953-7.95V98.77z" style="fill: rgb(255, 255, 255);"></path>
	<polygon class="st0" points="179.465,209.695 179.465,209.855 332.536,209.855 332.536,130.149 332.536,129.902 332.536,129.902 
		332.536,129.742 179.465,129.742 179.465,209.45 179.465,209.695 	" style="fill: rgb(255, 255, 255);"></polygon>
	<polygon class="st0" points="179.465,315.715 332.536,315.715 332.536,236.008 332.536,235.766 332.536,235.766 332.536,235.606 
		179.465,235.606 179.465,315.313 179.465,315.558 179.465,315.558 	" style="fill: rgb(255, 255, 255);"></polygon>
	<polygon class="st0" points="179.465,421.578 332.536,421.578 332.536,341.871 332.536,341.629 332.536,341.629 332.536,341.469 
		180.09,341.469 179.625,341.465 179.625,341.469 179.465,341.469 179.465,421.176 179.465,421.418 179.465,421.418 	" style="fill: rgb(255, 255, 255);"></polygon>
</g>
</svg>
